<?xml version="1.0" encoding="UTF-8" standalone="no"?>
<!-- Created with Inkscape (http://www.inkscape.org/) -->

<svg
   width="1000"
   height="250"
   viewBox="0 0 0.83333333 0.20833333"
   version="1.1"
   id="svg1"
   xml:space="preserve"
   xmlns="http://www.w3.org/2000/svg"
   xmlns:svg="http://www.w3.org/2000/svg"><defs
     id="defs1"><linearGradient
       id="swatch7462"><stop
         style="stop-color:#000000;stop-opacity:1;"
         offset="0"
         id="stop7462" /></linearGradient><linearGradient
       id="swatch7460"><stop
         style="stop-color:#f9f9f9;stop-opacity:1;"
         offset="0"
         id="stop7460" /></linearGradient><linearGradient
       id="swatch7453"><stop
         style="stop-color:#ffffff;stop-opacity:1;"
         offset="0"
         id="stop7453" /></linearGradient></defs><g
     id="layer2"><path
       style="fill:#f2f2f2;stroke:#000100;stroke-width:0.00472441;stroke-dasharray:none;stroke-opacity:0.170088"
       d="M 0.16834393,0.1629856 0.16793604,0.16296184 0.167096,0.16288832 0.16625595,0.1628148 0.16543046,0.16268088 0.16460496,0.16254697 0.16364558,0.16231121 0.16268619,0.16207545 0.16181008,0.161779 0.16093397,0.16148255 0.1603369,0.16123408 0.15973985,0.16098561 0.15890927,0.16056924 0.15807876,0.16015286 0.15739896,0.1597436 0.15671914,0.15933433 0.15627727,0.15902549 0.15583539,0.15871665 0.15539351,0.15837538 0.15495164,0.15803413 0.1542104,0.1573855 l -7.4125e-4,-6.4864e-4 -6.4048e-4,-7.1367e-4 -6.4048e-4,-7.1368e-4 -3.1782e-4,-4.2189e-4 -3.1783e-4,-4.2189e-4 -3.905e-5,-3.1e-6 -3.905e-5,-3.11e-6 -4.3682e-4,3.828e-4 -4.3681e-4,3.8281e-4 -6.1183e-4,4.0617e-4 -6.1183e-4,4.0617e-4 -3.739e-4,1.8857e-4 -3.7389e-4,1.8857e-4 -6.4582e-4,2.4039e-4 -6.4582e-4,2.4039e-4 -7.1381e-4,1.5904e-4 -7.1382e-4,1.5906e-4 -0.001258,-3e-8 -0.001258,-3e-8 -5.7784e-4,-1.2102e-4 -5.7784e-4,-1.2103e-4 -5.4385e-4,-1.7392e-4 -5.4384e-4,-1.7394e-4 -6.9469e-4,-3.2882e-4 -6.9469e-4,-3.2882e-4 -6.2599e-4,-4.2887e-4 -6.26e-4,-4.2886e-4 -5.7642e-4,-5.4531e-4 -5.7641e-4,-5.4531e-4 -4.5469e-4,-5.8801e-4 -4.5469e-4,-5.8802e-4 -3.2527e-4,-5.5495e-4 -3.2525e-4,-5.5495e-4 -3.2193e-4,-7.9514e-4 -3.2192e-4,-7.9513e-4 -2.3013e-4,-1.669e-5 -2.3012e-4,-1.669e-5 -6.4582e-4,-7.274e-5 -6.4582e-4,-7.273e-5 -8.1574e-4,-1.6299e-4 -8.1575e-4,-1.63e-4 -7.4173e-4,-2.1318e-4 -7.4173e-4,-2.1319e-4 -8.8976e-4,-3.5754e-4 -8.8976e-4,-3.5753e-4 -5.0987e-4,-2.5701e-4 -5.0985e-4,-2.5701e-4 -6.7981e-4,-4.0848e-4 -6.7981e-4,-4.0848e-4 -7.4779e-4,-5.5953e-4 -7.4779e-4,-5.5953e-4 -6.6767e-4,-6.3204e-4 -6.6766e-4,-6.3205e-4 -5.4561e-4,-6.5175e-4 -5.4562e-4,-6.5175e-4 -4.9644e-4,-7.4779e-4 -4.9643e-4,-7.4779e-4 -3.0628e-4,-5.7799e-4 -3.0628e-4,-5.7799e-4 -3.1205e-4,-7.8818e-4 -3.1206e-4,-7.8817e-4 -2.0213e-4,-7.7634e-4 -2.0214e-4,-7.7633e-4 -1.1666e-4,-6.7999e-4 -1.1666e-4,-6.8e-4 -1.03e-6,-0.001394 -1.03e-6,-0.001394 1.5553e-4,-8.8008e-4 1.5553e-4,-8.8008e-4 1.6616e-4,-5.8203e-4 1.6617e-4,-5.8204e-4 2.4478e-4,-6.4599e-4 2.4478e-4,-6.4599e-4 3.7604e-4,-7.4152e-4 3.7603e-4,-7.4153e-4 4.5252e-4,-6.8655e-4 4.5253e-4,-6.8654e-4 5.1119e-4,-6.1199e-4 5.1119e-4,-6.12e-4 5.7169e-4,-5.6981e-4 5.717e-4,-5.6981e-4 6.5348e-4,-5.2582e-4 6.5346e-4,-5.2583e-4 6.937e-4,-4.5753e-4 6.9371e-4,-4.5752e-4 8.2821e-4,-4.2921e-4 8.2821e-4,-4.2922e-4 7.8176e-4,-3.0959e-4 7.8177e-4,-3.0959e-4 8.1575e-4,-2.3395e-4 8.1574e-4,-2.3394e-4 6.9479e-4,-1.4345e-4 6.9478e-4,-1.4343e-4 8.6838e-4,-1.0161e-4 8.6838e-4,-1.0161e-4 h 5.4604e-4 5.4604e-4 l 5.49e-6,-0.001343 5.49e-6,-0.001343 1.1499e-4,-8.1603e-4 1.15e-4,-8.1602e-4 1.7214e-4,-7.7425e-4 1.7213e-4,-7.7425e-4 2.6587e-4,-8.0419e-4 2.6589e-4,-8.0419e-4 3.0897e-4,-7.0601e-4 3.0898e-4,-7.0602e-4 4.1098e-4,-7.4222e-4 4.1097e-4,-7.4222e-4 4.3326e-4,-6.46e-4 4.3325e-4,-6.4598e-4 4.5709e-4,-5.78e-4 4.5708e-4,-5.7799e-4 0.001025,-0.001027 0.001024,-0.001027 6.9356e-4,-5.4842e-4 6.9355e-4,-5.4841e-4 7.6806e-4,-5.1069e-4 7.6805e-4,-5.1068e-4 8.8273e-4,-4.8038e-4 8.8272e-4,-4.8039e-4 6.8296e-4,-2.9917e-4 6.8296e-4,-2.9918e-4 8.697e-4,-3.1534e-4 8.6971e-4,-3.1534e-4 0.001034,-2.6936e-4 0.001034,-2.6935e-4 0.001006,-1.7044e-4 0.001006,-1.7044e-4 5.6677e-4,-4.358e-5 0.0515254,-0.0060814 -0.003491,-4.7566e-4 0.004035,5.4132e-4 9.8591e-4,1.3982e-4 9.8592e-4,1.3981e-4 7.4779e-4,1.6904e-4 7.4779e-4,1.6904e-4 7.3874e-4,2.097e-4 7.3874e-4,2.097e-4 8.2507e-4,3.0741e-4 8.2508e-4,3.0741e-4 9.6433e-4,4.6256e-4 9.6433e-4,4.6257e-4 6.6755e-4,3.9026e-4 6.6754e-4,3.9025e-4 6.4582e-4,4.4166e-4 6.4582e-4,4.4165e-4 6.4449e-4,5.156e-4 6.4449e-4,5.1559e-4 7.6242e-4,7.3874e-4 7.6241e-4,7.3874e-4 1.2251e-4,-3.723e-5 1.2251e-4,-3.723e-5 9.6294e-4,-1.3921e-4 9.6294e-4,-1.392e-4 0.001234,-7.022e-5 0.001234,-7.021e-5 0.001232,7.318e-5 0.001232,7.317e-5 7.5127e-4,1.0405e-4 7.5128e-4,1.0405e-4 9.5179e-4,2.0067e-4 9.518e-4,2.0066e-4 9.1768e-4,2.7574e-4 9.1768e-4,2.7575e-4 7.1367e-4,2.7747e-4 7.1368e-4,2.7747e-4 7.5475e-4,3.5444e-4 7.5475e-4,3.5443e-4 6.776e-4,3.8041e-4 6.776e-4,3.8041e-4 7.5127e-4,5.0191e-4 7.5128e-4,5.0191e-4 6.7058e-4,5.3805e-4 6.7058e-4,5.3804e-4 7.4083e-4,7.1367e-4 7.4083e-4,7.1368e-4 5.2461e-4,6.1199e-4 5.2461e-4,6.1199e-4 4.1566e-4,5.6301e-4 4.1566e-4,5.63e-4 3.8776e-4,6.2698e-4 3.8777e-4,6.2697e-4 3.91e-4,7.8191e-4 3.91e-4,7.8191e-4 2.7034e-4,6.7999e-4 2.7035e-4,6.7999e-4 2.0934e-4,7.1367e-4 2.0936e-4,7.1367e-4 1.0327e-4,4.76e-4 1.0328e-4,4.7599e-4 1.0882e-4,6.4599e-4 1.0883e-4,6.4599e-4 3.591e-5,0.001462 3.591e-5,0.001462 -1.1212e-4,9.1768e-4 -1.1212e-4,9.1768e-4 -1.7401e-4,7.8191e-4 -1.74e-4,7.8191e-4 -2.4028e-4,7.4709e-4 -2.4028e-4,7.471e-4 -3.3111e-4,7.84e-4 -3.3112e-4,7.8399e-4 -4.1509e-4,7.471e-4 -4.151e-4,7.4709e-4 -3.5609e-4,5.4399e-4 -3.5608e-4,5.4399e-4 -6.0569e-4,7.7843e-4 -6.0571e-4,7.7842e-4 -8.4944e-4,8.5363e-4 -8.4945e-4,8.5362e-4 -7.4779e-4,6.014e-4 -7.4779e-4,6.014e-4 -8.9052e-4,5.8816e-4 -8.9053e-4,5.8816e-4 -3.703e-5,0.001496 -3.702e-5,0.001496 -1.4868e-4,8.4109e-4 -1.4869e-4,8.4109e-4 -2.3102e-4,8.4318e-4 -2.3103e-4,8.4318e-4 -3.0446e-4,7.7912e-4 -3.0447e-4,7.7913e-4 -4.1226e-4,8.2159e-4 -4.1226e-4,8.216e-4 -4.1467e-4,6.5873e-4 -4.1467e-4,6.5873e-4 -4.6702e-4,6.2183e-4 -4.67e-4,6.2183e-4 -5.6719e-4,6.3615e-4 -5.6719e-4,6.3616e-4 -5.8541e-4,5.5321e-4 -5.8541e-4,5.5322e-4 -6.8581e-4,5.518e-4 -6.8582e-4,5.518e-4 -7.1437e-4,4.7961e-4 -7.1437e-4,4.7961e-4 -8.9818e-4,5.0155e-4 -8.9819e-4,5.0156e-4 -8.8008e-4,3.8393e-4 -8.8008e-4,3.8392e-4 -8.8705e-4,3.044e-4 -8.8704e-4,3.044e-4 -8.8356e-4,2.288e-4 -8.8356e-4,2.2881e-4 -0.001053,1.738e-4 -0.001053,1.7381e-4 -8.6824e-4,7.856e-5 -8.6825e-4,7.856e-5 -0.001716,-3.75e-5 -0.001716,-3.749e-5 -7.8191e-4,-1.0848e-4 -7.8191e-4,-1.0849e-4 -8.8356e-4,-1.7576e-4 -8.8356e-4,-1.7575e-4 -8.1603e-4,-2.3211e-4 -8.1602e-4,-2.3211e-4 -7.8191e-4,-2.8281e-4 -7.8191e-4,-2.8281e-4 -8.1533e-4,-3.6413e-4 -8.1532e-4,-3.6414e-4 -2.063e-5,6.188e-5 -2.062e-5,6.189e-5 -3.0889e-4,6.0318e-4 -3.0889e-4,6.0319e-4 -4.3182e-4,6.4599e-4 -4.3182e-4,6.4599e-4 -4.8019e-4,5.5915e-4 -4.8019e-4,5.5913e-4 -6.2865e-4,5.5133e-4 -6.2865e-4,5.5132e-4 -7.4779e-4,5.0054e-4 -7.4779e-4,5.0054e-4 -7.8191e-4,3.7552e-4 -7.8191e-4,3.7553e-4 -7.3038e-4,2.3913e-4 -7.3039e-4,2.3914e-4 -6.6289e-4,1.3488e-4 -6.629e-4,1.3488e-4 -6.1183e-4,6.986e-5 -6.1183e-4,6.987e-5 -8.2925e-4,5.5e-7 -8.2925e-4,5.6e-7 -7.833e-4,-1.0274e-4 -7.833e-4,-1.0274e-4 -7.6659e-4,-1.9832e-4 -7.6659e-4,-1.9831e-4 -6.4583e-4,-2.4694e-4 -6.4581e-4,-2.4694e-4 -6.1744e-4,-3.2485e-4 -6.1743e-4,-3.2484e-4 -5.363e-4,-3.6037e-4 -5.3629e-4,-3.6037e-4 -4.6522e-4,-3.7598e-4 -4.6521e-4,-3.7597e-4 -5.9044e-4,5.7907e-4 -5.9044e-4,5.7908e-4 -4.7587e-4,4.0165e-4 -4.7586e-4,4.0166e-4 -7.1368e-4,5.1995e-4 -7.1367e-4,5.1996e-4 -7.4779e-4,4.5576e-4 -7.4779e-4,4.5576e-4 -0.00102,4.9473e-4 -0.00102,4.9472e-4 -7.1368e-4,2.7515e-4 -7.1367e-4,2.7516e-4 -9.1768e-4,2.7765e-4 -9.1768e-4,2.7766e-4 -0.001156,2.3455e-4 -0.001156,2.3454e-4 -9.5179e-4,1.0045e-4 -9.518e-4,1.0045e-4 -0.001122,2.948e-5 -0.001122,2.949e-5 z m 0.003535,-9.128e-4 8.1602e-4,-6.882e-5 0.001053,-1.7412e-4 0.001053,-1.7411e-4 8.8356e-4,-2.2966e-4 8.8356e-4,-2.2965e-4 6.7982e-4,-2.3124e-4 6.798e-4,-2.3125e-4 7.5824e-4,-3.1132e-4 7.5823e-4,-3.1133e-4 6.2066e-4,-3.1178e-4 6.2065e-4,-3.118e-4 7.2899e-4,-4.3348e-4 7.2899e-4,-4.3349e-4 7.1367e-4,-5.0912e-4 7.1368e-4,-5.0912e-4 6.4582e-4,-5.447e-4 6.4582e-4,-5.447e-4 2.2678e-4,-2.3726e-4 2.2678e-4,-2.3728e-4 -3.5265e-4,-3.6472e-4 -3.5266e-4,-3.6473e-4 -4.7611e-4,-6.1092e-4 -4.7611e-4,-6.1092e-4 -3.7155e-4,-6.3148e-4 -3.7155e-4,-6.3149e-4 -3.0655e-4,-7.2968e-4 -3.0656e-4,-7.2969e-4 -2.2584e-4,-8.8426e-4 -2.2584e-4,-8.8426e-4 -7.463e-5,-6.9975e-4 -7.463e-5,-6.9975e-4 v -6.0584e-4 -6.0584e-4 l 1.0196e-4,-7.7773e-4 1.0195e-4,-7.7773e-4 1.7328e-4,-6.671e-4 1.7328e-4,-6.6708e-4 2.7551e-4,-7.0462e-4 2.755e-4,-7.0463e-4 2.782e-5,2.783e-5 2.783e-5,2.784e-5 -1.0571e-4,2.996e-4 -1.0571e-4,2.9961e-4 -1.7122e-4,8.4596e-4 -1.7121e-4,8.4597e-4 -3.97e-5,9.2882e-4 -3.971e-5,9.2882e-4 8.439e-5,7.7564e-4 8.439e-5,7.7564e-4 2.2602e-4,8.8426e-4 2.2602e-4,8.8426e-4 2.7643e-4,6.7472e-4 2.7643e-4,6.7472e-4 3.5053e-4,6.1726e-4 3.5054e-4,6.1726e-4 4.75e-4,6.4599e-4 4.75e-4,6.4599e-4 6.5404e-4,6.4599e-4 6.5404e-4,6.46e-4 5.9877e-4,4.4919e-4 5.9876e-4,4.4921e-4 6.5888e-4,3.7233e-4 6.5889e-4,3.7232e-4 6.4582e-4,2.776e-4 6.4581e-4,2.7759e-4 4.7587e-4,1.452e-4 4.7587e-4,1.452e-4 5.7784e-4,1.2729e-4 5.7784e-4,1.2728e-4 6.7157e-4,8.287e-5 6.7158e-4,8.287e-5 0.001198,-3.957e-5 0.001198,-3.957e-5 8.2647e-4,-1.7323e-4 8.2647e-4,-1.7322e-4 6.3478e-4,-2.0749e-4 6.3478e-4,-2.0749e-4 0.00102,-5.0659e-4 0.00102,-5.0658e-4 6.4583e-4,-4.5936e-4 6.4581e-4,-4.5935e-4 8.5084e-4,-8.5014e-4 8.5084e-4,-8.5014e-4 4.4097e-4,-6.2922e-4 4.4098e-4,-6.2922e-4 3.1941e-4,-5.6076e-4 3.194e-4,-5.6077e-4 2.7155e-4,-6.7999e-4 2.7155e-4,-6.7999e-4 1.7572e-4,-6.1319e-4 1.7573e-4,-6.132e-4 9.843e-5,-5.0879e-4 9.843e-5,-5.0879e-4 -3.376e-5,6.0827e-4 -3.376e-5,6.0826e-4 -1.3845e-4,6.8372e-4 -1.3845e-4,6.8372e-4 -2.219e-4,6.6715e-4 -2.2188e-4,6.6715e-4 2.4279e-4,1.0265e-4 2.4279e-4,1.0266e-4 9.0027e-4,3.0208e-4 9.0028e-4,3.0207e-4 9.5597e-4,2.3482e-4 9.5598e-4,2.3483e-4 0.001101,1.7022e-4 0.001101,1.7022e-4 0.001088,7.897e-5 0.001088,7.896e-5 0.001257,-4.193e-5 0.001257,-4.194e-5 9.1768e-4,-1.0616e-4 9.1768e-4,-1.0617e-4 0.00102,-2.0245e-4 0.00102,-2.0245e-4 8.4944e-4,-2.4211e-4 8.4945e-4,-2.421e-4 8.2508e-4,-2.9911e-4 8.2507e-4,-2.9911e-4 8.0697e-4,-3.6538e-4 8.0698e-4,-3.6538e-4 6.3883e-4,-3.5521e-4 6.3883e-4,-3.5522e-4 5.5084e-4,-3.4159e-4 5.5084e-4,-3.4158e-4 4.7586e-4,-3.4434e-4 4.7587e-4,-3.4433e-4 5.0986e-4,-4.0924e-4 5.0985e-4,-4.0925e-4 8.397e-4,-8.202e-4 8.397e-4,-8.202e-4 5.5955e-4,-6.7999e-4 5.5955e-4,-6.8e-4 3.7564e-4,-5.4398e-4 3.7565e-4,-5.4399e-4 3.9779e-4,-6.7999e-4 3.9779e-4,-6.8e-4 3.4896e-4,-7.8191e-4 3.4896e-4,-7.819e-4 2.4692e-4,-7.4779e-4 2.4692e-4,-7.478e-4 1.6941e-4,-7.1367e-4 1.6943e-4,-7.1367e-4 1.0395e-4,-8.028e-4 1.0395e-4,-8.0279e-4 v -0.001217 -0.001217 l -1.0416e-4,-8.028e-4 -1.0416e-4,-8.0279e-4 -1.7688e-4,-7.4431e-4 -1.7688e-4,-7.4431e-4 -2.552e-4,-7.5197e-4 -2.552e-4,-7.5197e-4 -2.4979e-4,-5.7799e-4 -2.4979e-4,-5.7799e-4 -3.1187e-4,-5.78e-4 -3.1187e-4,-5.7799e-4 -4.9739e-4,-7.5754e-4 -4.9738e-4,-7.5753e-4 -6.0624e-4,-7.3805e-4 -6.0623e-4,-7.3804e-4 -8.4039e-4,-8.2229e-4 -8.404e-4,-8.2229e-4 -6.9905e-4,-5.5348e-4 -6.9905e-4,-5.5347e-4 -7.6241e-4,-5.0149e-4 -7.6241e-4,-5.015e-4 -8.1603e-4,-4.4656e-4 -8.1602e-4,-4.4656e-4 -8.4945e-4,-3.7004e-4 -8.4945e-4,-3.7002e-4 -8.8356e-4,-3.0672e-4 -8.8356e-4,-3.0672e-4 -6.4582e-4,-1.7524e-4 -6.4583e-4,-1.7522e-4 -0.00102,-2.0368e-4 -0.00102,-2.0368e-4 -9.1768e-4,-1.0708e-4 -9.1768e-4,-1.0708e-4 -0.001257,-4.097e-5 -0.001257,-4.097e-5 -0.001088,8.006e-5 -0.001088,8.006e-5 -8.8356e-4,1.2996e-4 -8.8357e-4,1.2996e-4 -4.9866e-4,1.0513e-4 -4.9867e-4,1.0513e-4 -6.5701e-4,1.676e-4 -6.5701e-4,1.6761e-4 -6.4342e-4,2.0283e-4 -6.4343e-4,2.0284e-4 -2.053e-5,-2.054e-5 -2.051e-5,-2.052e-5 8.0488e-4,-3.1288e-4 8.0488e-4,-3.1287e-4 9.1281e-4,-2.7377e-4 9.1281e-4,-2.7377e-4 8.1602e-4,-1.7578e-4 8.1603e-4,-1.7577e-4 9.3926e-4,-1.3268e-4 9.3926e-4,-1.3267e-4 0.001185,-6.079e-5 0.001185,-6.08e-5 0.001199,6.152e-5 0.001199,6.153e-5 9.5946e-4,1.399e-4 9.5945e-4,1.399e-4 6.4582e-4,1.3768e-4 6.4582e-4,1.3769e-4 8.4944e-4,2.3721e-4 8.4945e-4,2.3721e-4 9.1768e-4,3.4161e-4 9.1768e-4,3.4161e-4 0.00102,4.9649e-4 0.00102,4.9649e-4 7.4779e-4,4.5575e-4 7.4779e-4,4.5576e-4 7.1368e-4,5.1976e-4 7.1367e-4,5.1976e-4 6.7981e-4,5.8507e-4 6.7981e-4,5.8507e-4 7.2064e-4,7.4848e-4 7.2063e-4,7.4849e-4 4.9596e-4,6.3892e-4 4.9596e-4,6.3892e-4 4.6441e-4,7.0183e-4 4.644e-4,7.0184e-4 3.6932e-4,6.9231e-4 3.6933e-4,6.923e-4 3.0733e-4,7.2411e-4 3.0732e-4,7.2412e-4 2.7798e-4,8.7382e-4 2.7798e-4,8.7381e-4 1.8821e-4,9.3787e-4 1.882e-4,9.3787e-4 8.2438e-4,-5.4577e-4 8.2438e-4,-5.4576e-4 7.0184e-4,-5.5654e-4 7.0184e-4,-5.5652e-4 8.8843e-4,-8.8983e-4 8.8844e-4,-8.8983e-4 4.6188e-4,-5.7711e-4 4.6189e-4,-5.771e-4 4.9741e-4,-7.4918e-4 4.9741e-4,-7.4919e-4 4.065e-4,-7.819e-4 4.0652e-4,-7.8191e-4 3.1611e-4,-8.0628e-4 3.1611e-4,-8.0628e-4 2.2981e-4,-8.9679e-4 2.2981e-4,-8.9679e-4 1.1803e-4,-8.1254e-4 1.1804e-4,-8.1255e-4 v -0.001258 -0.001258 L 0.24598595,0.11662314 0.24586792,0.1158106 0.24563811,0.11491381 0.2454083,0.11401701 0.24509219,0.11321074 0.24477608,0.11240446 0.24437014,0.11162255 0.2439642,0.11084064 0.24339296,0.1099905 l -5.7123e-4,-8.5014e-4 -5.708e-4,-6.7999e-4 -5.7079e-4,-6.7999e-4 -7.2551e-4,-6.9836e-4 -7.2551e-4,-6.9835e-4 -6.9442e-4,-5.5479e-4 -6.9441e-4,-5.5479e-4 -8.8357e-4,-5.8012e-4 -8.8356e-4,-5.8012e-4 -0.00103,-5.3102e-4 -0.00103,-5.3101e-4 -7.088e-4,-2.97e-4 -7.088e-4,-2.97e-4 -9.4602e-4,-3.0891e-4 -9.4692e-4,-3.0892e-4 -8.1603e-4,-2.0529e-4 -8.1602e-4,-2.0529e-4 -7.8191e-4,-1.3896e-4 -7.8191e-4,-1.3896e-4 -8.8356e-4,-1.0358e-4 -8.8356e-4,-1.0357e-4 -0.001257,-4.14e-5 -0.001257,-4.14e-5 -0.001122,7.845e-5 -0.001122,7.844e-5 -7.1368e-4,1.0238e-4 -7.1367e-4,1.0237e-4 -8.8356e-4,1.7517e-4 -8.8356e-4,1.7516e-4 -9.518e-4,2.6891e-4 -9.518e-4,2.6892e-4 -9.8591e-4,3.7877e-4 -9.8592e-4,3.7877e-4 -7.5057e-4,3.5335e-4 -7.5058e-4,3.5336e-4 -7.45e-4,4.2908e-4 -7.4501e-4,4.2907e-4 -5.0985e-4,3.3411e-4 -5.0986e-4,3.3411e-4 3.0591e-4,-2.7703e-4 3.0591e-4,-2.7703e-4 7.4362e-4,-5.2366e-4 7.4361e-4,-5.2366e-4 7.1785e-4,-4.3389e-4 7.1785e-4,-4.3388e-4 9.518e-4,-4.6156e-4 9.518e-4,-4.6155e-4 9.2534e-4,-3.4619e-4 9.2533e-4,-3.4619e-4 9.2604e-4,-2.5641e-4 9.2603e-4,-2.564e-4 7.3e-7,-4.421e-5 7.2e-7,-4.421e-5 -5.6084e-4,-4.8988e-4 -5.6084e-4,-4.8987e-4 -7.5615e-4,-5.7005e-4 -7.5615e-4,-5.7004e-4 -7.7285e-4,-4.8028e-4 -7.7286e-4,-4.8029e-4 -8.5084e-4,-4.3292e-4 -8.5083e-4,-4.3291e-4 -8.3483e-4,-3.4316e-4 -8.3482e-4,-3.4316e-4 -7.3735e-4,-2.3848e-4 -7.3735e-4,-2.3847e-4 -8.1393e-4,-2.0641e-4 -8.1394e-4,-2.0642e-4 -9.7825e-4,-1.6389e-4 -9.7826e-4,-1.6389e-4 -8.2716e-4,-7.369e-5 -0.0515084,0.0062873 -6.7451e-4,1.0115e-4 -5.1516e-4,1.0488e-4 -5.1516e-4,1.0488e-4 -6.798e-4,1.7059e-4 -6.7982e-4,1.7058e-4 -7.4779e-4,2.4008e-4 -7.4779e-4,2.4009e-4 -7.8177e-4,3.0644e-4 -7.8177e-4,3.0644e-4 -9.9489e-4,4.9586e-4 -9.949e-4,4.9586e-4 -8.3399e-4,5.1871e-4 -8.3399e-4,5.1872e-4 -7.5433e-4,5.6812e-4 -7.5434e-4,5.6813e-4 -7.4779e-4,6.7555e-4 -7.4779e-4,6.7555e-4 -4.8255e-4,5.3888e-4 -4.8254e-4,5.3888e-4 -4.6517e-4,5.7799e-4 -4.6516e-4,5.7799e-4 -5.3714e-4,8.1602e-4 -5.3713e-4,8.1603e-4 -5.3463e-4,0.001088 -5.3463e-4,0.001088 -3.3967e-4,0.001023 -3.3967e-4,0.001023 -1.7025e-4,8.4666e-4 -1.7026e-4,8.4666e-4 -6.865e-5,5.7799e-4 -6.864e-5,5.78e-4 -4.554e-5,8.564e-4 -4.555e-5,8.5641e-4 7.0873e-4,4.337e-5 7.0866e-4,4.338e-5 9.8319e-4,1.6828e-4 9.832e-4,1.6828e-4 8.6818e-4,2.3978e-4 8.6824e-4,2.3978e-4 7.973e-4,3.1178e-4 7.9729e-4,3.1178e-4 7.9465e-4,4.0039e-4 7.9472e-4,4.004e-4 5.4799e-4,3.3996e-4 5.4798e-4,3.3997e-4 6.2878e-4,4.6891e-4 6.2877e-4,4.6892e-4 5.9447e-4,5.2254e-4 5.9447e-4,5.2255e-4 6.1421e-4,6.9236e-4 6.1423e-4,6.9235e-4 4.0908e-4,5.8046e-4 4.0908e-4,5.8046e-4 1.4439e-4,2.38e-4 1.444e-4,2.38e-4 -6.813e-5,-6.801e-5 -6.813e-5,-6.8e-5 L 0.15065798,0.1270568 0.15024554,0.12654681 0.1494738,0.12579554 0.14870205,0.12504427 0.14826017,0.12469968 0.1478183,0.1243551 0.14707051,0.12386217 0.14632272,0.12336923 0.14523472,0.12283847 0.14414672,0.1223077 0.14326294,0.12200549 0.14237917,0.1217033 0.1414954,0.12149322 l -8.8377e-4,-2.1008e-4 -7.4779e-4,-1.0935e-4 -7.4779e-4,-1.0935e-4 -0.001037,-5.523e-5 -0.001037,-5.523e-5 -0.001037,5.579e-5 -0.001037,5.579e-5 -7.0852e-4,1.0767e-4 -7.0852e-4,1.0767e-4 -5.1275e-4,1.0594e-4 -5.1275e-4,1.0594e-4 -8.1818e-4,2.3522e-4 -8.1818e-4,2.3524e-4 -7.8177e-4,3.1174e-4 -7.8177e-4,3.1174e-4 -6.7197e-4,3.3647e-4 -6.7197e-4,3.3646e-4 -6.0671e-4,3.754e-4 -6.0671e-4,3.7539e-4 -6.9277e-4,5.1533e-4 -6.9277e-4,5.1532e-4 -7.7202e-4,7.5336e-4 -7.7202e-4,7.5336e-4 -4.1208e-4,5.0999e-4 -4.1208e-4,5.1e-4 -4.7191e-4,7.1367e-4 -4.7191e-4,7.1367e-4 -3.6376e-4,7.4988e-4 -3.6376e-4,7.4988e-4 -2.7089e-4,8.1394e-4 -2.7089e-4,8.1393e-4 -1.37e-4,6.8e-4 -1.37e-4,6.7999e-4 -7.238e-5,9.0166e-4 -7.237e-5,9.0167e-4 6.787e-5,8.3622e-4 6.787e-5,8.3621e-4 1.4198e-4,7.3596e-4 1.4197e-4,7.3595e-4 2.3592e-4,7.2203e-4 2.3592e-4,7.2203e-4 4.0311e-4,8.3552e-4 4.0311e-4,8.3552e-4 3.8519e-4,5.9248e-4 3.8519e-4,5.9248e-4 4.4751e-4,5.7799e-4 4.4752e-4,5.7799e-4 7.505e-4,7.4849e-4 7.5051e-4,7.4848e-4 8.1574e-4,6.1263e-4 8.1575e-4,6.1261e-4 6.6277e-4,3.9452e-4 6.6277e-4,3.9452e-4 8.328e-4,3.93e-4 8.3281e-4,3.9302e-4 8.1526e-4,2.915e-4 8.1526e-4,2.915e-4 9.0466e-4,2.2793e-4 9.0466e-4,2.2794e-4 8.0906e-4,1.1732e-4 8.0906e-4,1.1732e-4 2.883e-5,-3.162e-5 2.881e-5,-3.162e-5 -8.846e-5,-5.0999e-4 -8.847e-5,-5.1e-4 -4.5e-5,-7.1367e-4 -4.499e-5,-7.1368e-4 7.305e-5,-6.9557e-4 7.306e-5,-6.9557e-4 1.0794e-4,-5.2274e-4 1.0795e-4,-5.2274e-4 2.0683e-4,-6.1766e-4 2.0682e-4,-6.1767e-4 3.4102e-4,-6.7999e-4 3.4101e-4,-6.7998e-4 2.7425e-4,-4.08e-4 2.7425e-4,-4.0799e-4 4.2341e-4,-5.1e-4 4.2342e-4,-5.0999e-4 1.9087e-4,-1.7e-4 1.9088e-4,-1.6999e-4 -2.7647e-4,3.3999e-4 -2.7648e-4,3.4e-4 -3.4055e-4,5.0999e-4 -3.4056e-4,5.0999e-4 -2.8473e-4,5.677e-4 -2.8472e-4,5.6771e-4 -2.2913e-4,6.9028e-4 -2.2915e-4,6.9028e-4 -1.1063e-4,5.0998e-4 -1.1065e-4,5.1e-4 -3.912e-5,0.00113 -3.912e-5,0.00113 8.112e-5,5.7002e-4 8.112e-5,5.7002e-4 1.6789e-4,6.7339e-4 1.6789e-4,6.7339e-4 2.6424e-4,6.3257e-4 2.6424e-4,6.3258e-4 3.7444e-4,6.3201e-4 3.7443e-4,6.3201e-4 4.4802e-4,5.5617e-4 4.4801e-4,5.5617e-4 5.2592e-4,4.8648e-4 5.2592e-4,4.8647e-4 6.0703e-4,4.0751e-4 6.0703e-4,4.0752e-4 3.9313e-4,1.9849e-4 3.9312e-4,1.9851e-4 5.2532e-4,2.0873e-4 5.2531e-4,2.0873e-4 6.8391e-4,1.6376e-4 6.8391e-4,1.6375e-4 7.581e-4,7.046e-5 7.5809e-4,7.047e-5 8.319e-4,-7.226e-5 8.319e-4,-7.225e-5 7.5538e-4,-1.9513e-4 7.5538e-4,-1.9514e-4 5.6926e-4,-2.405e-4 5.6926e-4,-2.4049e-4 4.8445e-4,-2.8463e-4 4.8445e-4,-2.8464e-4 4.5887e-4,-3.3654e-4 4.5887e-4,-3.3654e-4 v -3.377e-5 -3.376e-5 L 0.15079383,0.15338294 0.1503372,0.15265813 0.14991908,0.15183514 0.14950097,0.15101215 0.14922432,0.15029569 0.14894768,0.14957923 0.148739,0.14886277 0.14853032,0.14814632 0.14840133,0.147512 0.14827234,0.14687767 0.148181,0.14623168 l -9.133e-5,-6.4599e-4 2.72e-6,-0.00153 2.72e-6,-0.00153 1.1911e-4,-7.8191e-4 1.1909e-4,-7.819e-4 1.7629e-4,-7.4779e-4 1.7629e-4,-7.4779e-4 3.0083e-4,-8.8426e-4 3.0082e-4,-8.8426e-4 4.9376e-4,-0.00102 4.9378e-4,-0.00102 4.0025e-4,-6.4599e-4 4.0025e-4,-6.4599e-4 6.115e-4,-8.1603e-4 6.1151e-4,-8.1602e-4 0.001091,-0.001097 0.00109,-0.001097 6.9912e-4,-5.5154e-4 6.9913e-4,-5.5155e-4 7.6248e-4,-5.004e-4 7.6248e-4,-5.004e-4 6.7981e-4,-3.8156e-4 6.7981e-4,-3.8156e-4 8.8377e-4,-3.9993e-4 8.8377e-4,-3.9991e-4 7.8177e-4,-2.8001e-4 7.8177e-4,-2.7999e-4 8.232e-4,-2.367e-4 8.2319e-4,-2.3671e-4 8.7953e-4,-1.7154e-4 8.7952e-4,-1.7153e-4 7.9904e-4,-1.0477e-4 7.9904e-4,-1.0478e-4 2.8543e-4,6.99e-6 2.8543e-4,7e-6 -7.1381e-4,9.379e-5 -7.1381e-4,9.38e-5 -8.8377e-4,1.7721e-4 -8.8377e-4,1.772e-4 -0.00102,2.9531e-4 -0.00102,2.9531e-4 -9.2443e-4,3.7111e-4 -9.2444e-4,3.7112e-4 -9.5437e-4,4.844e-4 -9.5437e-4,4.844e-4 -7.8672e-4,5.031e-4 -7.8664e-4,5.031e-4 -6.6555e-4,5.1115e-4 -6.6556e-4,5.1114e-4 -7.1382e-4,6.43e-4 -7.1381e-4,6.4301e-4 -5.9892e-4,6.7941e-4 -5.9892e-4,6.7941e-4 -5.0386e-4,6.7146e-4 -5.0384e-4,6.7145e-4 -5.2009e-4,8.7033e-4 -5.2009e-4,8.7034e-4 -3.5906e-4,7.9513e-4 -3.5907e-4,7.9514e-4 -2.4886e-4,7.1367e-4 -2.4887e-4,7.1368e-4 -1.9502e-4,7.9583e-4 -1.9501e-4,7.9583e-4 -1.2162e-4,7.6798e-4 -1.2161e-4,7.6799e-4 v 0.001632 0.001632 l 1.2161e-4,7.6798e-4 1.2162e-4,7.6798e-4 1.9501e-4,7.9583e-4 1.9502e-4,7.9584e-4 2.4887e-4,7.1367e-4 2.4886e-4,7.1367e-4 3.5476e-4,7.8609e-4 3.5477e-4,7.8609e-4 4.8162e-4,8.1393e-4 4.8163e-4,8.1394e-4 5.3513e-4,7.2203e-4 5.3514e-4,7.2202e-4 6.5622e-4,7.3805e-4 6.5622e-4,7.3804e-4 7.0197e-4,6.2649e-4 7.0198e-4,6.265e-4 6.2981e-4,4.8342e-4 6.2981e-4,4.8341e-4 7.8845e-4,5.0422e-4 7.8846e-4,5.0422e-4 9.5437e-4,4.844e-4 9.5437e-4,4.844e-4 9.2444e-4,3.7112e-4 9.2443e-4,3.7112e-4 0.00102,2.9503e-4 0.00102,2.9503e-4 8.4979e-4,1.7237e-4 8.4972e-4,1.7238e-4 8.8378e-4,1.0549e-4 8.8377e-4,1.055e-4 2.7192e-4,2.297e-5 2.7192e-4,2.298e-5 0.001292,1.073e-5 0.001292,1.073e-5 z m -0.004027,-0.036834 1.8788e-4,-2.842e-5 1.5202e-4,2.934e-5 1.5203e-4,2.935e-5 -3.3991e-4,-9.3e-7 -3.3991e-4,-9.3e-7 z m 0.0387992,-0.006649 v -3.4e-5 h 3.399e-5 3.399e-5 v 3.4e-5 3.4e-5 h -3.399e-5 -3.399e-5 z m 0.004147,-0.0134638 v -3.401e-5 h 3.399e-5 3.399e-5 v 3.401e-5 3.399e-5 h -3.399e-5 -3.399e-5 z"
       id="path61" /></g><g
     id="layer1"><path
       style="font-weight:600;font-size:0.0444444px;font-family:Poppins;-inkscape-font-specification:'Poppins Semi-Bold';fill:#000000;fill-opacity:1;stroke-width:0.00314961"
       d="m 0.25491026,0.03857887 v 0.03102219 h -0.006222 V 0.0494233 l -0.008311,0.02017776 h -0.004711 L 0.22731029,0.0494233 v 0.02017776 h -0.006222 V 0.03857887 h 0.007067 l 0.009867,0.02306664 0.009867,-0.02306664 z m 0.0296889,0.0064 -0.0152444,0.03626663 h -0.006622 l 0.005333,-0.01226665 -0.009867,-0.02399998 h 0.006978 l 0.006356,0.01719998 0.006444,-0.01719998 z"
       id="text5"
       aria-label="My" /><path
       style="font-size:0.1px;font-family:Poppins;-inkscape-font-specification:Poppins;fill-rule:evenodd;stroke-width:0.00028031"
       d="m 0.32586701,0.08447963 -0.0263,0.0697 h -0.0105 l -0.0263,-0.0697 h 0.0097 l 0.0219,0.0601 0.0219,-0.0601 z m 0.0147001,0.006 q -0.0026,0 -0.0044,-0.0018 -0.0018,-0.0018 -0.0018,-0.0044 0,-0.0026 0.0018,-0.0044 0.0018,-0.0018 0.0044,-0.0018 0.0025,0 0.0042,0.0018 0.0018,0.0018 0.0018,0.0044 0,0.0026 -0.0018,0.0044 -0.0017,0.0018 -0.0042,0.0018 z m 0.0044,0.0089 v 0.0548 h -0.0091 v -0.0548 z m 0.0359,0.0464 0.017,-0.0464 h 0.0097 l -0.0215,0.0548 h -0.0106 l -0.0215,-0.0548 h 0.0098 z m 0.0323001,-0.0192 q 0,-0.0084 0.0034,-0.0147 0.0034,-0.0064 0.0093,-0.0099 0.006,-0.0035 0.0133,-0.0035 0.0072,0 0.0125,0.0031 0.0053,0.0031 0.0079,0.0078 v -0.01 h 0.0092 v 0.0548 h -0.0092 v -0.0102 q -0.0027,0.0048 -0.0081,0.008 -0.0053,0.0031 -0.0124,0.0031 -0.0073,0 -0.0132,-0.0036 -0.0059,-0.0036 -0.0093,-0.0101 -0.0034,-0.0065 -0.0034,-0.0148 z m 0.0464,10e-5 q 0,-0.0062 -0.0025,-0.0108 -0.0025,-0.0046 -0.0068,-0.007 -0.0042,-0.0025 -0.0093,-0.0025 -0.0051,0 -0.0093,0.0024 -0.0042,0.0024 -0.0067,0.007 -0.0025,0.0046 -0.0025,0.0108 0,0.0063 0.0025,0.011 0.0025,0.0046 0.0067,0.0071 0.0042,0.0024 0.0093,0.0024 0.0051,0 0.0093,-0.0024 0.0043,-0.0025 0.0068,-0.0071 0.0025,-0.0047 0.0025,-0.0109 z m 0.0337001,-0.0184 q 0.0024,-0.0047 0.0068,-0.0073 0.0045,-0.0026 0.0109,-0.0026 v 0.0094 h -0.0024 q -0.0153,0 -0.0153,0.0166 v 0.0298 h -0.0091 v -0.0548 h 0.0091 z m 0.0328999,-0.0178 q -0.0026,0 -0.0044,-0.0018 -0.0018,-0.0018 -0.0018,-0.0044 0,-0.0026 0.0018,-0.0044 0.0018,-0.0018 0.0044,-0.0018 0.0025,0 0.0042,0.0018 0.0018,0.0018 0.0018,0.0044 0,0.0026 -0.0018,0.0044 -0.0017,0.0018 -0.0042,0.0018 z m 0.0044,0.0089 v 0.0548 h -0.0091 v -0.0548 z m 0.0641,0 v 0.0548 h -0.0091 v -0.0081 q -0.0026,0.0042 -0.0073,0.0066 -0.0046,0.0023 -0.0102,0.0023 -0.0064,0 -0.0115,-0.0026 -0.0051,-0.0027 -0.0081,-0.008 -0.0029,-0.0053 -0.0029,-0.0129 v -0.0321 h 0.009 v 0.0309 q 0,0.0081 0.0041,0.0125 0.0041,0.0043 0.0112,0.0043 0.0073,0 0.0115,-0.0045 0.0042,-0.0045 0.0042,-0.0131 v -0.0301 z m 0.0812999,-0.001 q 0.0064,0 0.0114,0.0027 0.005,0.0026 0.0079,0.0079 0.0029,0.0053 0.0029,0.0129 v 0.0323 h -0.009 v -0.031 q 0,-0.0082 -0.0041,-0.0125 -0.004,-0.0044 -0.0109,-0.0044 -0.0071,0 -0.0113,0.0046 -0.0042,0.0045 -0.0042,0.0131 v 0.0302 h -0.009 v -0.031 q 0,-0.0082 -0.0041,-0.0125 -0.004,-0.0044 -0.0109,-0.0044 -0.0071,0 -0.0113,0.0046 -0.0042,0.0045 -0.0042,0.0131 v 0.0302 h -0.0091 v -0.0548 h 0.0091 v 0.0079 q 0.0027,-0.0043 0.0072,-0.0066 0.0046,-0.0023 0.0101,-0.0023 0.0069,0 0.0122,0.0031 0.0053,0.0031 0.0079,0.0091 0.0023,-0.0058 0.0076,-0.009 0.0053,-0.0032 0.0118,-0.0032 z"
       id="text2"
       aria-label="Vivarium" /><ellipse
       style="fill:#ffffff;stroke:none;stroke-width:0.00472441;stroke-dasharray:none"
       id="path6"
       cx="0.2024321"
       cy="0.095673449"
       rx="0.002186531"
       ry="0.0021611063" /></g><g
     id="layer5"><path
       style="fill:#ffffff;stroke-width:0.00472441"
       d="m 0.15254867,0.09376658 -0.007933,-0.01261068 -0.008136,-0.0091529 -0.007119,-0.0111869 4.068e-4,-0.0058986 0.007729,-0.0018306 0.008543,0.0014238 0.0130175,0.0052883 0.006509,0.0052884 6.1019e-4,0.0016272 0.001017,-0.0032544 0.004068,-0.0012204 0.007322,0.0022374 0.003254,0.005085 -0.001627,0.0036612 -0.001424,0.0024408 0.001627,0.0079325 0.005085,-0.001017 0.0117971,0.005085 0.007933,0.0083393 0.004271,0.0083393 0.001627,0.008543 -0.002441,0.009967 -0.004271,0.004068 -0.0103733,0.003661 -0.0195262,0.001017 -0.008543,-0.003051 0.003254,-0.002848 0.002644,-0.001424 -0.004678,-0.005695 -0.003865,-0.004271 -0.002441,0.005288 -0.002848,0.008136 -0.006509,0.002848 -0.003661,-0.002644 0.002034,-0.002848 0.004271,-0.005085 -4.0679e-4,-0.0146447 -8.136e-4,-0.0056951 z"
       id="path1" /></g><g
     id="layer3"><path
       style="fill:#000000;fill-opacity:1;stroke-width:0.696267"
       d="m 0.16843614,0.13260768 -0.002817,-1.2499e-4 -7.2983e-4,-1.0936e-4 -7.2982e-4,-1.0935e-4 -2.5212e-4,-1.3483e-4 -2.5212e-4,-1.3483e-4 -9.421e-5,-3.7512e-4 -9.422e-5,-3.7511e-4 3.0364e-4,-9.8243e-4 3.0364e-4,-9.8243e-4 7.8741e-4,-0.001151 7.8741e-4,-0.001151 8.7444e-4,-8.9262e-4 8.7444e-4,-8.9261e-4 9.1128e-4,-4.5598e-4 9.1127e-4,-4.5597e-4 h 2.1064e-4 2.1064e-4 l -2.2382e-4,-4.2378e-4 -2.2382e-4,-4.2377e-4 -0.001284,-0.001439 -0.001284,-0.001439 -9.4184e-4,-0.001146 -9.4184e-4,-0.001146 -2.4525e-4,-4.9649e-4 -2.4525e-4,-4.9649e-4 -8.805e-5,-4.2378e-4 -8.804e-5,-4.2377e-4 h -2.0448e-4 -2.0446e-4 l -2.3661e-4,2.6967e-4 -2.3662e-4,2.6968e-4 -2.3422e-4,4.6287e-4 -2.3423e-4,4.6288e-4 -7.7376e-4,0.002569 -7.7376e-4,0.002569 -5.5483e-4,0.00136 -5.5483e-4,0.00136 -7.3031e-4,0.001225 -7.3032e-4,0.001225 -0.001026,0.001087 -0.001026,0.001087 -8.2417e-4,4.943e-4 -8.2418e-4,4.943e-4 -9.1907e-4,2.3768e-4 -9.1907e-4,2.3767e-4 -8.5432e-4,-2.27e-6 -8.5425e-4,-2.28e-6 -9.6865e-4,-2.2822e-4 -9.6864e-4,-2.2821e-4 -6.0303e-4,-3.0744e-4 -6.0303e-4,-3.0743e-4 -4.0745e-4,-5.3383e-4 -4.0744e-4,-5.3382e-4 -2.1831e-4,-7.2482e-4 -2.1831e-4,-7.2481e-4 v -6.1256e-4 -6.1256e-4 l 1.7601e-4,-5.8708e-4 1.7602e-4,-5.8709e-4 4.509e-4,-5.4664e-4 4.509e-4,-5.4666e-4 8.4868e-4,-2.4654e-4 8.4861e-4,-2.4654e-4 5.0473e-4,-4.4285e-4 5.0473e-4,-4.4286e-4 4.6804e-4,-8.9123e-4 4.6803e-4,-8.9122e-4 3.1992e-4,-0.001002 3.1992e-4,-0.001002 2.306e-4,-0.001156 2.306e-4,-0.001156 1.5671e-4,-0.001261 1.5669e-4,-0.001261 1.0191e-4,-0.002207 1.0192e-4,-0.002207 -1.8221e-4,-0.002543 -1.8221e-4,-0.002543 -2.1881e-4,-0.001464 -2.1882e-4,-0.001464 -2.992e-4,-0.001618 -2.9921e-4,-0.001618 -1.036e-4,-0.0010785 -1.036e-4,-0.0010785 1.7178e-4,-4.4412e-4 1.7178e-4,-4.4411e-4 2.9377e-4,2.6568e-4 2.9379e-4,2.6569e-4 3.8248e-4,9.5458e-4 3.8249e-4,9.5458e-4 3.9472e-4,0.001458 3.9471e-4,0.001458 2.371e-4,0.001772 2.3709e-4,0.001772 1.6045e-4,0.006464 1.6047e-4,0.006464 -1.5252e-4,0.002713 -1.5252e-4,0.002713 -3.2807e-4,8.759e-4 -3.2806e-4,8.759e-4 -6.4491e-4,5.5837e-4 -6.4491e-4,5.5838e-4 -0.001299,7.1437e-4 -0.001299,7.1437e-4 -6.898e-5,2.0898e-4 -6.898e-5,2.0897e-4 0.001907,-6.081e-5 0.001907,-6.081e-5 7.9006e-4,-4.1054e-4 7.9005e-4,-4.1055e-4 6.5226e-4,-7.3944e-4 6.5227e-4,-7.3943e-4 8.2139e-4,-0.001695 8.2138e-4,-0.001695 6.1475e-4,-0.001849 6.1475e-4,-0.001849 7.9709e-4,-0.002774 7.9708e-4,-0.002774 7.416e-4,-0.002312 7.4159e-4,-0.002312 3.198e-4,-0.001849 3.1978e-4,-0.001849 1.5911e-4,-0.001596 1.591e-4,-0.001596 v -0.00113 -0.00113 l 1.793e-4,-1.1074e-4 1.7931e-4,-1.1075e-4 4.2994e-4,4.8087e-4 4.2994e-4,4.8087e-4 1.808e-4,6.6095e-4 1.808e-4,6.6097e-4 -9.055e-5,0.002465 -9.056e-5,0.002466 -3.1324e-4,0.002543 -3.1324e-4,0.002543 -7.4e-7,8.6824e-4 -7.4e-7,8.6825e-4 4.2406e-4,7.8747e-4 4.2406e-4,7.8748e-4 0.001928,0.002184 0.001928,0.002183 0.001585,0.001592 0.001585,0.001592 8.0489e-4,4.6143e-4 8.0488e-4,4.6142e-4 0.001032,1.45e-6 0.001032,1.45e-6 1.0089e-4,-1.6315e-4 1.0091e-4,-1.6315e-4 -3.8364e-4,-5.6883e-4 -3.8364e-4,-5.6883e-4 -1.9044e-4,-6.012e-4 -1.9043e-4,-6.0119e-4 8.517e-5,-0.002404 8.517e-5,-0.002404 3.225e-4,-0.001464 3.2251e-4,-0.001464 4.5361e-4,-0.001397 4.5361e-4,-0.001397 4.687e-4,-0.001044 4.687e-4,-0.001044 6.1967e-4,-8.8287e-4 6.1967e-4,-8.8286e-4 0.001083,-8.2299e-4 0.001083,-8.2299e-4 7.1367e-4,-3.611e-4 7.1367e-4,-3.6111e-4 h 2.8228e-4 2.8228e-4 v 2.7391e-4 2.7391e-4 l -2.6354e-4,3.8102e-4 -2.6353e-4,3.8101e-4 -0.001143,0.00131 -0.001143,0.00131 -5.772e-4,8.4736e-4 -5.772e-4,8.4735e-4 -8.7103e-4,0.001737 -8.7103e-4,0.001737 -2.2862e-4,8.773e-4 -2.2863e-4,8.773e-4 8.6e-7,0.001856 8.6e-7,0.001856 1.6767e-4,6.0347e-4 1.6766e-4,6.0347e-4 3.1983e-4,4.323e-4 3.1983e-4,4.323e-4 2.0213e-4,0.001269 2.0213e-4,0.001269 5.6042e-4,8.1324e-4 5.6042e-4,8.1324e-4 -9.683e-5,3.8557e-4 -9.684e-5,3.8557e-4 -6.2349e-4,3.1786e-4 -6.2348e-4,3.1787e-4 -0.001263,1.4514e-4 -0.001263,1.4514e-4 -7.8469e-4,1.17e-6 -7.8469e-4,1.17e-6 -0.001193,3.0499e-4 -0.001193,3.0499e-4 -9.128e-4,4.0951e-4 -9.1281e-4,4.095e-4 v 1.9338e-4 1.9337e-4 l 6.1551e-4,2.4611e-4 6.155e-4,2.4611e-4 0.001813,2.305e-4 0.001813,2.3051e-4 0.002236,1.5835e-4 0.002236,1.5835e-4 0.005089,9.652e-5 0.005089,9.653e-5 0.003161,-1.8203e-4 0.003161,-1.8204e-4 0.001079,-1.5045e-4 0.001079,-1.5044e-4 9.2534e-4,-2.2784e-4 9.2534e-4,-2.2782e-4 0.001542,-7.5824e-4 0.001542,-7.5823e-4 0.001079,-9.0585e-4 0.001079,-9.0584e-4 8.6476e-4,-0.001122 8.6477e-4,-0.001122 5.813e-4,-0.001175 5.8132e-4,-0.001175 2.9881e-4,-8.5432e-4 2.9943e-4,-8.5432e-4 3.0646e-4,-0.00131 3.0647e-4,-0.00131 8.604e-5,-0.002465 8.604e-5,-0.002466 -2.5059e-4,-0.001787 -2.5059e-4,-0.001787 -3.9616e-4,-0.001526 -3.9614e-4,-0.001526 -5.4649e-4,-0.001464 -5.4648e-4,-0.001464 -7.6589e-4,-0.001528 -7.659e-4,-0.0015283 -7.4639e-4,-0.0012025 -7.464e-4,-0.0012024 -9.6294e-4,-0.0012763 -9.6294e-4,-0.0012763 -0.001863,-0.0018493 -0.001863,-0.0018493 -0.001262,-9.2047e-4 -0.001262,-9.2046e-4 -0.001744,-0.0010514 -0.001744,-0.0010514 -0.00239,-0.0012108 -0.00239,-0.0012108 -9.2534e-4,-2.6257e-4 -9.2534e-4,-2.6259e-4 -2.1101e-4,-2.0007e-4 -2.11e-4,-2.0008e-4 1.0186e-4,-1.647e-4 1.0186e-4,-1.647e-4 6.126e-4,-1.6484e-4 6.1259e-4,-1.6484e-4 c 0.003071,9.0027e-4 5.7673e-4,3.1915e-4 0.002986,8.7186e-4 l 7.826e-4,3.3596e-4 8.8217e-4,3.3595e-4 0.001739,7.8539e-4 0.001739,7.8539e-4 0.001677,9.9357e-4 c 0.004198,0.0024864 0.001587,0.0010097 0.003883,0.0025437 l 0.002367,0.0024209 0.002367,0.0024209 0.001273,0.0015861 0.001273,0.0015861 4.8238e-4,9.5667e-4 c 7.1159e-4,0.0012644 0.001204,0.0020115 0.001773,0.0036289 l 5.6665e-4,0.00113 5.6665e-4,0.00113 2.276e-4,9.2465e-4 2.276e-4,9.2464e-4 2.2832e-4,0.001327 2.2833e-4,0.001327 1.7801e-4,0.002371 1.7801e-4,0.002371 -1.0184e-4,0.001695 -1.0185e-4,0.001695 -2.2309e-4,9.7268e-4 -2.231e-4,9.7269e-4 v 4.2955e-4 4.2954e-4 l 4.315e-4,6.4207e-4 4.3151e-4,6.4207e-4 8.404e-4,6.3569e-4 8.4039e-4,6.3569e-4 0.001388,6.6918e-4 0.001388,6.6918e-4 9.894e-4,2.492e-4 9.8939e-4,2.4919e-4 0.00111,-5.601e-5 0.00111,-5.602e-5 c 0.001093,-4.9579e-4 0.001727,-7.2481e-4 0.002827,-0.001336 l 8.8147e-4,-6.6456e-4 8.8217e-4,-6.6455e-4 7.7077e-4,-8.954e-4 7.7077e-4,-8.954e-4 7.9861e-4,-0.001192 7.9862e-4,-0.001192 4.6174e-4,-9.699e-4 4.6173e-4,-9.699e-4 3.1219e-4,-0.001233 3.1219e-4,-0.001233 1.6234e-4,-0.001306 1.6234e-4,-0.001306 -9.1e-7,-9.2882e-4 -9e-7,-9.2882e-4 -2.2874e-4,-0.001517 -2.2874e-4,-0.001517 -5.3165e-4,-0.001587 -5.3163e-4,-0.001588 -6.8683e-4,-0.001365 -6.8682e-4,-0.0013647 -0.001073,-0.0016181 -0.001073,-0.0016181 -0.001241,-0.0015408 -0.001241,-0.0015408 -0.001982,-0.0021278 -0.001982,-0.0021285 -0.001443,-0.0015701 -0.001443,-0.0015701 -0.001308,-0.0016181 -0.001308,-0.0016181 -9.7896e-4,-0.0014627 -9.7895e-4,-0.001464 -5.5322e-4,-0.0011651 -5.5323e-4,-0.0011651 -3.3398e-4,-0.00141 c -3.8687e-4,-0.0020534 -1.717e-4,-0.0010328 -7.7285e-4,-0.0042731 l -7.732e-5,-0.001541 -7.73e-5,-0.001541 3.21e-4,-0.0018803 3.2099e-4,-0.0018803 6.34e-4,-0.0019474 6.3399e-4,-0.0019474 9.1838e-4,-0.001834 9.1837e-4,-0.001834 9.1838e-4,-0.0012183 9.1838e-4,-0.0012183 8.8077e-4,-8.0475e-4 8.8078e-4,-8.0474e-4 5.996e-5,1.7975e-4 5.996e-5,1.7976e-4 -0.001782,0.0036526 -0.001782,0.0036525 -4.0208e-4,0.0010787 -4.0209e-4,0.0010787 -3.871e-4,0.001541 -3.871e-4,0.001541 -8.334e-5,0.0020804 -8.334e-5,0.0020804 2.4245e-4,0.0013869 2.4244e-4,0.0013869 4.0102e-4,0.0012268 4.0101e-4,0.0012269 6.8235e-4,0.0014207 6.8235e-4,0.0014207 0.001221,0.0018214 0.001221,0.0018213 0.001228,0.0014649 0.001227,0.0014649 0.002938,0.0030483 0.002938,0.0030483 0.00126,0.0015875 0.00126,0.0015875 0.001078,0.0016042 0.001078,0.0016042 9.887e-4,0.0020032 9.887e-4,0.0020032 5.3423e-4,0.001642 5.3423e-4,0.001642 2.7071e-4,0.001363 2.7073e-4,0.001363 2.59e-6,0.002389 2.61e-6,0.002389 -2.7212e-4,0.00131 -2.7211e-4,0.00131 -4.0254e-4,0.001233 -4.0253e-4,0.001233 -5.1407e-4,0.001132 -5.1407e-4,0.001132 -7.1716e-4,0.001079 -7.1715e-4,0.001079 -8.3691e-4,9.0306e-4 -8.3692e-4,9.0306e-4 -0.001031,7.5962e-4 -0.001031,7.5963e-4 -0.001086,5.4328e-4 -0.001086,5.4327e-4 -0.00115,3.6084e-4 -0.00115,3.6085e-4 -0.002159,-6.17e-6 -0.002159,-6.19e-6 -0.001246,-4.1595e-4 -0.001246,-4.1594e-4 -9.511e-4,-6.1425e-4 -9.511e-4,-6.1425e-4 -6.5605e-4,-6.0119e-4 -6.5605e-4,-6.0117e-4 -5.9655e-4,-4.0208e-4 -5.9654e-4,-5.5229e-4 -2.7186e-4,9.2395e-4 -3.0901e-4,8.7869e-4 -3.0902e-4,8.7869e-4 -7.0114e-4,0.001053 -7.0114e-4,0.001053 -0.001183,0.001237 -0.001183,0.001237 -0.001221,9.1907e-4 -0.001221,9.1908e-4 -0.00102,5.1253e-4 -0.00102,5.1253e-4 -8.4805e-4,1.6793e-4 -8.4806e-4,1.6792e-4 -0.001851,1.572e-4 -0.001851,1.5719e-4 -0.00347,1.5732e-4 -0.003469,1.5732e-4 -0.008558,6.316e-5 -0.008558,6.315e-5 z m -0.0159684,-0.03850732 -8.695e-5,-4.3443e-4 -0.001023,-0.0012874 -0.001023,-0.0012874 -0.002093,-0.0028603 -0.002093,-0.0028603 -0.00149,-0.0016954 -0.00149,-0.0016954 -0.003271,-0.0038131 -0.003271,-0.003813 -3.7393e-4,-2.4484e-4 -3.7394e-4,-2.4485e-4 -3.0489e-4,9.67e-5 -3.0489e-4,9.671e-5 -7.7885e-4,0.0012259 -7.7884e-4,0.0012259 H 0.13348217 0.13325304 L 0.13309341,0.07621107 0.13293378,0.07591299 V 0.07514856 0.0743842 l 3.2408e-4,-0.0010485 3.2408e-4,-0.0010485 -5.733e-5,-0.0010095 -5.734e-5,-0.0010095 -3.1985e-4,-6.1641e-4 -3.1986e-4,-6.1639e-4 -4.2885e-4,-1.5212e-4 -4.2885e-4,-1.5213e-4 -5.0461e-4,5.8335e-4 -5.0461e-4,5.8336e-4 -9.921e-5,5.2846e-4 -9.92e-5,5.2847e-4 -7.5949e-4,0.0011348 -7.5949e-4,0.0011348 -6.9294e-4,6.383e-4 -6.9295e-4,6.3831e-4 -2.548e-4,-9.691e-5 -2.5485e-4,-9.773e-5 7.347e-5,-7.6408e-4 7.348e-5,-7.6409e-4 0.001169,-0.002279 0.001169,-0.002279 2.575e-4,-8.8509e-4 2.5748e-4,-8.8517e-4 -6.867e-5,-7.872e-4 -6.868e-5,-7.8719e-4 -4.9396e-4,-7.6987e-4 -4.9324e-4,-7.6986e-4 -4.7203e-4,-0.0014646 -4.7204e-4,-0.0014646 -3.7977e-4,-0.0016181 -3.7978e-4,-0.0016181 -7.967e-5,-0.0019262 -7.967e-5,-0.0019262 2.8102e-4,-5.3411e-4 2.8102e-4,-5.3411e-4 5.0273e-4,-2.9001e-4 5.0272e-4,-2.9001e-4 0.001836,-1.1709e-4 0.001836,-1.171e-4 5.144e-4,-2.9683e-4 5.144e-4,-2.9683e-4 2.7894e-4,-5.3411e-4 2.7893e-4,-5.3411e-4 -7.873e-5,-7.3038e-4 -7.872e-5,-7.3039e-4 -7.668e-4,-0.0018218 -7.668e-4,-0.0018218 -3.8415e-4,-0.0012233 -3.8415e-4,-0.0012233 -9.539e-5,-5.6864e-4 -9.54e-5,-5.6865e-4 9.627e-5,-3.8333e-4 9.628e-5,-3.8332e-4 2.3969e-4,-9.193e-5 2.3969e-4,-9.191e-5 3.029e-4,2.7339e-4 3.029e-4,2.734e-4 9.0368e-4,0.0018492 9.0369e-4,0.0018492 4.8687e-4,0.001464 4.8686e-4,0.001464 2.019e-4,0.0014362 2.019e-4,0.0014362 1.8302e-4,2.2037e-4 1.8301e-4,2.2038e-4 h 1.2024e-4 1.2024e-4 l 1.8208e-4,-5.0083e-4 1.8209e-4,-5.0082e-4 1.3703e-4,-0.0029232 1.3704e-4,-0.0029232 1.0249e-4,-6.9814e-4 1.025e-4,-6.9815e-4 1.2937e-4,-3.4673e-4 1.2937e-4,-3.4672e-4 h 2.9847e-4 2.9847e-4 l 3.1591e-4,6.5493e-4 3.1591e-4,6.5492e-4 1.8019e-4,0.0011557 1.802e-4,0.0011557 -1.1971e-4,0.0022345 -1.1971e-4,0.0022345 2.657e-5,5.7758e-4 2.658e-5,5.7757e-4 1.4988e-4,3.9394e-4 1.4988e-4,3.9394e-4 7.0573e-4,3.1195e-4 7.0574e-4,3.1196e-4 0.002572,1.2993e-4 0.002572,1.2993e-4 0.00115,2.4781e-4 0.00115,2.478e-4 0.001932,6.4191e-4 0.001932,6.419e-4 0.002393,0.0011917 0.002393,0.0011917 0.001696,0.001127 0.001696,0.001127 0.002159,0.0020934 0.002159,0.0020934 6.7851e-4,4.89e-4 7.2858e-4,4.89e-4 4.6192e-4,-7.645e-4 4.8525e-4,-5.6422e-4 8.5459e-4,-6.5415e-4 9.5472e-4,-1.5345e-4 0.001388,-2.6121e-4 0.001388,-2.612e-4 0.002082,6.49e-6 0.002082,6.5e-6 8.4805e-4,1.6926e-4 8.4806e-4,1.6927e-4 7.9513e-4,3.8753e-4 7.9514e-4,3.8754e-4 7.8609e-4,9.5869e-4 7.8608e-4,9.5869e-4 5.2361e-4,0.0010016 5.2362e-4,0.0010016 3.053e-4,0.0010016 3.053e-4,0.0010016 1.0731e-4,9.3508e-4 1.073e-4,9.3509e-4 -1.7766e-4,9.7909e-4 -1.7768e-4,9.7909e-4 -6.0523e-4,0.0012029 -6.0523e-4,0.0012029 9.5e-7,5.813e-4 9.5e-7,5.8129e-4 4.7482e-4,0.0016181 4.7482e-4,0.001618 8.02e-5,0.0016181 8.02e-5,0.0016181 -2.4534e-4,0.0010402 -2.4535e-4,0.0010402 -4.8387e-4,9.5806e-4 -4.8387e-4,9.5806e-4 -9.4483e-4,9.3997e-4 -9.4483e-4,9.3996e-4 -9.699e-4,4.818e-4 -9.699e-4,4.818e-4 -0.001177,2.6183e-4 -0.001177,2.6183e-4 -0.001504,-9.158e-5 -0.001504,-9.158e-5 -0.001493,-4.946e-4 -0.001493,-4.9458e-4 -0.001198,-7.1994e-4 -0.001198,-7.1925e-4 -0.001196,-9.887e-4 -0.001196,-9.8869e-4 -9.7916e-4,-0.0011419 -9.7916e-4,-0.0011419 -3.2179e-4,-6.6427e-4 -3.2179e-4,-6.6428e-4 9.792e-5,-1.5832e-4 9.791e-5,-1.5833e-4 h 2.754e-4 2.754e-4 l 9.1058e-4,6.1328e-4 9.1058e-4,6.1327e-4 0.001465,0.0011607 0.001465,0.0011607 0.001388,6.8507e-4 0.001388,6.8506e-4 0.001154,3.1449e-4 0.001154,3.1449e-4 h 0.001402 0.001402 l 7.6728e-4,-2.2775e-4 7.6729e-4,-2.2775e-4 7.3038e-4,-4.8337e-4 7.3039e-4,-4.8338e-4 4.8126e-4,-6.9905e-4 4.8126e-4,-6.9905e-4 2.8501e-4,-9.149e-4 2.85e-4,-9.1489e-4 v -0.0011097 -0.0011096 l -2.3805e-4,-9.1845e-4 -2.3784e-4,-9.1845e-4 -4.9463e-4,-8.2591e-4 -4.9464e-4,-8.2591e-4 -7.5475e-4,-6.8132e-4 -7.5475e-4,-6.8132e-4 -0.001099,-5.2859e-4 -0.001099,-5.2859e-4 -0.001307,-3.1963e-4 -0.001307,-3.1963e-4 -0.002998,-1.5466e-4 -0.002998,-1.5468e-4 -6.8364e-4,-1.531e-4 -6.8365e-4,-1.531e-4 -2.9882e-4,-1.5983e-4 -2.9883e-4,-1.5982e-4 1.7482e-4,-2.1049e-4 1.7482e-4,-2.105e-4 4.905e-4,-1.0444e-4 4.9052e-4,-1.0444e-4 0.002082,-6.9044e-4 0.002082,-6.9046e-4 0.00131,9.445e-5 0.001311,9.444e-5 0.001347,2.3263e-4 0.001347,2.3263e-4 9.8174e-4,3.0298e-4 9.8173e-4,3.0298e-4 5.9082e-4,4.0067e-4 5.9082e-4,4.0067e-4 3.855e-4,1.4647e-4 3.8551e-4,1.4647e-4 4.2344e-4,-1.7528e-4 4.2344e-4,-1.7527e-4 2.357e-4,-4.9637e-4 2.357e-4,-4.9637e-4 9.718e-5,-6.0732e-4 9.719e-5,-6.0732e-4 -1.8016e-4,-0.001001 -1.8014e-4,-0.001001 -4.5869e-4,-9.6412e-4 -4.5869e-4,-9.6412e-4 -7.5824e-4,-7.5761e-4 -7.5823e-4,-7.5761e-4 -0.001017,-5.0027e-4 -0.001017,-5.0026e-4 -0.001198,-6.932e-5 -0.001198,-6.932e-5 -0.001389,3.9942e-4 -0.001389,3.994e-4 -8.8377e-4,1.038e-4 -6.3336e-4,3.5415e-4 -6.258e-4,0.0010049 1.0009e-4,7.7996e-4 9.498e-5,0.0013484 9.499e-5,0.0013484 H 0.1672862 0.16704503 l -4.3908e-4,-5.7788e-4 -4.3907e-4,-5.7788e-4 -7.418e-4,-0.0011098 -7.418e-4,-0.0011099 -0.001433,-0.0013695 -0.001434,-0.0013695 -0.001215,-8.5265e-4 -0.001215,-8.5265e-4 -0.001649,-9.4657e-4 -0.001649,-9.4658e-4 -0.001666,-7.4925e-4 -0.001666,-7.4925e-4 -0.001465,-5.4621e-4 -0.001465,-5.462e-4 -0.001773,-5.3659e-4 -0.001773,-5.366e-4 -0.001927,-3.9339e-4 -0.001928,-3.9339e-4 -0.001307,-1.6078e-4 -0.001307,-1.6077e-4 h -0.001725 -0.001725 l -0.001169,2.2356e-4 -0.001169,2.2356e-4 -7.3331e-4,3.2368e-4 -7.333e-4,3.2369e-4 -5.2e-4,4.9293e-4 -5.2e-4,4.9293e-4 -2.8619e-4,6.1641e-4 -2.8619e-4,6.1639e-4 -3.39e-6,7.4208e-4 -3.39e-6,7.4209e-4 1.5963e-4,2.9807e-4 1.5963e-4,2.9806e-4 h 3.5321e-4 3.5321e-4 l 3.1442e-4,-3.4672e-4 3.1443e-4,-3.4672e-4 4.2103e-4,-7.3199e-4 4.2102e-4,-7.3198e-4 h 1.2698e-4 1.2697e-4 l 3.2865e-4,5.3139e-4 3.2864e-4,5.3139e-4 3.3931e-4,1.1295e-4 3.393e-4,1.1295e-4 5.3358e-4,1.058e-5 5.3358e-4,1.059e-5 1.1517e-4,5.3935e-4 1.1517e-4,5.3935e-4 1.3828e-4,0.0041607 1.3827e-4,0.0041607 3.8468e-4,0.0010945 3.8468e-4,0.0010944 5.6129e-4,8.4506e-4 5.6129e-4,8.4506e-4 0.001323,0.0015278 0.001323,0.0015277 0.001435,0.0016951 0.001435,0.0016951 0.0015,0.0020033 0.0015,0.0020032 0.00143,0.0021577 0.00143,0.002157 9.7874e-4,0.0016954 9.7874e-4,0.0016954 5.0376e-4,0.0012331 5.0377e-4,0.0012331 2.6e-6,4.9173e-4 2.59e-6,4.9174e-4 -1.3543e-4,8.364e-5 -1.3542e-4,8.365e-5 z m -0.0179371,-0.02939883 2.6036e-4,-5.4562e-4 9.293e-5,-8.8857e-4 9.294e-5,-8.8851e-4 -1.8572e-4,-5.6237e-4 -1.8573e-4,-5.6237e-4 H 0.134224 0.13384257 l -2.2344e-4,5.344e-4 -2.2343e-4,5.3441e-4 v 0.0012034 0.0012034 l 2.3552e-4,3.3604e-4 2.3553e-4,3.3604e-4 2.0176e-4,-7.737e-5 2.0176e-4,-7.737e-5 z m 0.0178854,6.8414e-4 -1.3021e-4,-2.0084e-4 -3.1785e-4,-7.7112e-4 -3.1784e-4,-7.7111e-4 -3.5836e-4,-1.7869e-4 -3.5835e-4,-1.7869e-4 -1.3102e-4,-2.0656e-4 -1.3101e-4,-2.0656e-4 -2.36e-6,-5.0566e-4 -2.36e-6,-5.0567e-4 2.3446e-4,-8.991e-5 2.3445e-4,-8.991e-5 8.7667e-4,4.4147e-4 8.7667e-4,4.4148e-4 2.9371e-4,4.0617e-4 2.9369e-4,4.0617e-4 6.654e-5,6.7253e-4 6.653e-5,6.7253e-4 -2.03e-4,3.8525e-4 -2.03e-4,3.8525e-4 -3.2855e-4,4.734e-5 -3.2855e-4,4.734e-5 z"
       id="path7462" /></g></svg>
